<?xml version="1.0" standalone="no"?>
<!DOCTYPE svg PUBLIC "-//W3C//DTD SVG 20010904//EN"
 "http://www.w3.org/TR/2001/REC-SVG-20010904/DTD/svg10.dtd">
<svg version="1.0" xmlns="http://www.w3.org/2000/svg"
 width="2048.000000pt" height="2048.000000pt" viewBox="0 0 2048.000000 2048.000000"
 preserveAspectRatio="xMidYMid meet">
<metadata>
Created by potrace 1.14, written by Peter Selinger 2001-2017
</metadata>
<g transform="translate(0.000000,2048.000000) scale(0.100000,-0.100000)"
fill="#000000" stroke="none">
<path d="M3999 20476 c-2 -2 -40 -6 -84 -10 -103 -8 -154 -14 -240 -27 -38 -6
-88 -12 -110 -15 -22 -3 -47 -7 -55 -9 -8 -3 -33 -7 -55 -11 -22 -3 -43 -8
-46 -10 -4 -2 -24 -6 -45 -10 -97 -15 -341 -85 -538 -154 -195 -68 -467 -192
-644 -294 -35 -20 -66 -36 -68 -36 -3 0 -10 -5 -17 -10 -7 -6 -66 -44 -132
-86 -318 -201 -617 -456 -875 -745 -41 -46 -80 -90 -87 -97 -23 -24 -179 -227
-214 -277 -19 -27 -36 -52 -39 -55 -8 -7 -123 -186 -157 -245 -134 -228 -264
-504 -344 -730 -44 -126 -116 -364 -123 -409 -3 -21 -10 -46 -16 -55 -5 -10
-7 -20 -5 -23 3 -2 0 -20 -5 -39 -6 -19 -13 -50 -16 -69 -3 -19 -9 -51 -14
-70 -4 -19 -11 -57 -15 -83 -3 -27 -8 -58 -10 -69 -3 -11 -7 -46 -11 -77 -3
-31 -8 -63 -9 -71 -17 -91 -20 -1056 -20 -6440 0 -5519 2 -6345 19 -6450 2
-14 7 -52 11 -85 4 -32 9 -68 11 -79 2 -11 6 -38 10 -61 14 -93 43 -242 53
-268 6 -15 10 -31 9 -35 -2 -9 5 -36 44 -172 102 -361 252 -706 442 -1020 28
-47 56 -93 61 -103 14 -25 124 -184 163 -237 225 -302 455 -542 777 -809 77
-63 335 -244 440 -308 218 -133 525 -282 725 -352 41 -15 80 -29 85 -33 21
-12 357 -110 415 -122 14 -2 77 -15 140 -29 63 -14 137 -28 163 -32 27 -3 57
-8 66 -10 22 -4 102 -14 161 -20 25 -2 74 -8 110 -12 86 -11 5707 -10 5835 0
55 5 109 10 120 12 11 2 43 7 70 10 80 10 114 15 220 35 55 10 115 22 134 25
167 29 575 160 766 245 156 69 324 151 390 189 28 17 61 36 75 44 82 46 116
66 215 132 258 171 458 335 680 559 333 334 588 692 802 1124 l85 172 1107 1
c608 0 1126 2 1151 3 94 6 225 18 230 21 3 1 32 6 65 9 33 4 67 9 75 11 8 2
31 7 50 10 19 3 76 15 125 26 50 11 97 22 106 24 83 18 357 109 426 140 17 8
33 15 36 15 18 0 326 152 369 181 14 11 29 19 33 19 25 0 334 216 475 333 98
82 320 300 406 402 427 500 710 1133 789 1770 4 28 8 61 11 75 15 91 18 686
18 4188 1 3470 3 3912 16 3913 45 2 275 70 360 106 94 41 229 108 298 150 68
41 218 146 232 162 3 3 30 26 60 51 152 124 312 316 448 535 76 123 201 423
226 545 3 14 10 43 15 65 6 22 13 60 17 85 3 25 8 48 10 51 15 26 19 302 19
1384 l0 1230 -23 80 c-24 83 -99 245 -114 245 -4 0 -8 7 -8 15 0 23 -168 188
-235 230 -302 192 -666 185 -965 -18 -112 -76 -241 -239 -294 -372 -60 -150
-62 -177 -63 -694 -1 -260 -3 -475 -6 -477 -4 -4 -1419 -8 -1657 -5 l-45 1 2
462 c1 541 -4 591 -84 758 -123 255 -348 422 -643 476 -45 8 -214 8 -260 -1
-341 -61 -596 -291 -693 -623 l-22 -77 0 -1230 c0 -676 3 -1257 7 -1290 8 -62
20 -133 37 -220 17 -87 79 -279 120 -374 172 -396 431 -707 786 -943 209 -140
506 -266 714 -305 14 -2 27 -6 30 -8 3 -2 6 -1771 5 -3932 -1 -3069 -3 -3947
-13 -4013 -19 -127 -64 -307 -101 -395 -249 -609 -784 -1012 -1430 -1081 -28
-3 -1538 -7 -1795 -5 l-70 1 0 6032 c-1 5411 -3 6200 -19 6320 -3 18 -7 56
-10 83 -18 160 -57 375 -102 552 -33 132 -109 381 -125 413 -4 8 -26 65 -50
125 -98 256 -287 607 -466 863 -225 321 -513 631 -798 859 -44 35 -87 70 -96
77 -163 132 -494 339 -729 453 -373 182 -827 327 -1185 378 -22 3 -53 8 -70
10 -16 3 -43 7 -58 9 -15 3 -58 8 -95 12 -37 3 -78 9 -92 12 -28 6 -5754 14
-5761 8z m3042 -4248 c118 -28 268 -103 356 -178 130 -111 246 -295 278 -440
2 -8 8 -34 13 -56 13 -56 13 -236 0 -304 -24 -136 -57 -205 -218 -465 -51 -82
-113 -184 -138 -225 -53 -86 -124 -201 -201 -327 -285 -465 -418 -681 -536
-873 -76 -124 -153 -250 -172 -280 -19 -30 -65 -104 -102 -165 l-68 -110 66
-2 c36 -2 473 -4 971 -6 498 -2 919 -7 935 -10 17 -4 64 -14 105 -23 486 -105
909 -520 1021 -1004 29 -126 34 -171 34 -330 0 -175 -7 -225 -50 -376 -41
-140 -92 -250 -186 -394 -49 -75 -553 -884 -582 -935 -7 -11 -24 -39 -39 -62
-16 -23 -28 -45 -28 -48 0 -4 -14 -28 -32 -53 -62 -91 -68 -101 -68 -107 0 -4
-11 -21 -25 -39 -14 -18 -25 -35 -25 -38 0 -4 -31 -55 -68 -115 -38 -59 -135
-216 -216 -348 -82 -132 -163 -262 -181 -290 -17 -27 -98 -157 -178 -287 -215
-349 -229 -369 -337 -458 -118 -99 -227 -150 -390 -184 -60 -13 -255 -14 -305
-3 -94 22 -130 34 -194 63 -183 84 -321 214 -410 388 -35 69 -65 148 -76 206
-16 76 -18 103 -18 180 1 136 24 246 77 360 19 41 231 389 348 572 15 24 32
52 38 63 6 11 19 34 30 50 11 17 23 37 27 45 3 8 9 17 13 20 3 3 52 82 109
175 57 94 118 193 136 220 18 28 58 91 88 140 46 74 187 302 247 400 141 229
233 377 266 428 22 35 43 70 46 78 5 12 -124 14 -916 15 -506 0 -955 3 -996 8
-409 40 -805 296 -1025 661 -67 111 -135 272 -151 355 -3 14 -9 42 -15 62 -18
69 -24 142 -24 288 0 171 10 248 49 385 28 99 52 151 136 290 59 96 331 537
411 665 16 25 36 59 45 75 9 17 31 53 49 80 18 28 94 151 170 275 76 124 154
251 174 282 20 31 43 69 52 85 9 15 56 91 104 168 48 77 99 160 113 184 15 24
45 71 66 105 21 33 47 75 56 91 10 17 59 98 110 180 161 260 221 358 267 435
75 125 103 162 183 240 114 111 265 192 415 223 104 22 266 20 366 -5z"/>
</g>
</svg>
